#N canvas 0 0 824 952 10;
#X obj 22 90 cnv 15 60 22 empty empty empty 20 12 0 14 -253938 -66577
0;
#N canvas 146 163 525 433 serin 0;
#X obj 180 61 cnv 15 15 15 empty \$0-number-canvas 5 4 8 0 14 -233017
-1 0;
#X obj 200 225 s \$0-number-canvas;
#X obj 60 61 hradio 15 1 1 8 empty empty empty 0 -6 0 8 -225271 -1
-1 5;
#X obj 60 13 inlet;
#X msg 200 202 label \$1;
#X obj 200 180 makefilename %d;
#X obj 59 108 int;
#X msg 59 206 open \$1;
#X obj 59 377 outlet;
#X msg 201 306 set \$1 \$2;
#X obj 59 266 trigger bang anything;
#X obj 201 286 list;
#X obj 383 383 outlet;
#X obj 384 22 netreceive 34567;
#X obj 477 43 tgl 15 0 empty empty empty 0 -6 0 10 -262144 -1 -1 0
1;
#X obj 384 41 bng 15 250 50 0 empty empty empty 0 -6 0 10 -262144 -1
-1;
#X obj 187 24 delay 15000;
#X text 345 379 close;
#X text 209 4 for open/close automation in Makefile;
#X obj 184 95 bang;
#X obj 184 137 send ARDUINO_TEST_RESET;
#X msg 184 116 set 0;
#X connect 2 0 6 0;
#X connect 2 0 19 0;
#X connect 3 0 2 0;
#X connect 4 0 1 0;
#X connect 5 0 4 0;
#X connect 6 0 5 0;
#X connect 6 0 7 0;
#X connect 7 0 10 0;
#X connect 9 0 8 0;
#X connect 10 0 8 0;
#X connect 10 1 11 0;
#X connect 11 0 9 0;
#X connect 13 0 15 0;
#X connect 13 1 14 0;
#X connect 15 0 16 0;
#X connect 15 0 12 0;
#X connect 16 0 2 0;
#X connect 19 0 21 0;
#X connect 21 0 20 0;
#X coords 0 -1 1 1 136 17 1 60 60;
#X restore 28 69 pd serin;
#X text 25 51 serial port #;
#X msg 88 92 close;
#X obj 121 292 arduino 1;
#X text 181 291 <-- argument sets port #;
#X text 8 1 The [arduino] object works with the Firmata firmware.;
#X msg 28 92 open 5;
#X obj 332 128 cnv 15 85 22 empty empty empty 20 12 0 14 -253938 -66577
0;
#X obj 451 42 hsl 150 17 0 1 0 0 empty ARDUINO_TEST_RESET red 20 9
1 10 -258113 -1 -1 14900 0;
#N canvas 743 89 423 503 analog 0;
#X obj 38 10 inlet;
#X obj 131 10 inlet;
#X obj 38 259 pack float float;
#X obj 192 113 route float symbol;
#X obj 188 259 pack float symbol;
#X text 78 11 pin#;
#X text 179 10 PWM value or "off";
#X obj 39 217 cyclone/gate 2;
#X msg 191 153 1;
#X msg 252 153 2;
#X obj 131 34 list;
#X obj 131 113 float;
#X obj 131 67 trigger bang anything;
#X obj 37 427 outlet;
#X obj 37 356 trigger bang anything;
#X obj 179 376 list;
#X msg 179 396 set \$1 \$2 \$3;
#X msg 37 308 analog \$1 \$2;
#X connect 0 0 11 0;
#X connect 1 0 10 0;
#X connect 2 0 17 0;
#X connect 3 0 8 0;
#X connect 3 0 2 1;
#X connect 3 1 9 0;
#X connect 3 1 4 1;
#X connect 4 0 17 0;
#X connect 7 0 2 0;
#X connect 7 1 4 0;
#X connect 8 0 7 0;
#X connect 9 0 7 0;
#X connect 10 0 12 0;
#X connect 11 0 7 1;
#X connect 12 0 11 0;
#X connect 12 1 3 0;
#X connect 14 0 13 0;
#X connect 14 1 15 0;
#X connect 15 0 16 0;
#X connect 16 0 13 0;
#X connect 17 0 14 0;
#X restore 340 108 pd analog;
#X obj 324 268 cnv 15 85 22 empty empty empty 20 12 0 14 -253938 -66577
0;
#X obj 453 172 hsl 150 17 0 1 0 0 empty ARDUINO_TEST_RESET green 20
9 1 10 -4034 -1 -1 14900 0;
#N canvas 72 104 423 503 analog 0;
#X obj 38 10 inlet;
#X obj 131 10 inlet;
#X obj 38 259 pack float float;
#X obj 192 113 route float symbol;
#X obj 188 259 pack float symbol;
#X text 78 11 pin#;
#X text 179 10 PWM value or "off";
#X obj 39 217 cyclone/gate 2;
#X msg 191 153 1;
#X msg 252 153 2;
#X obj 131 34 list;
#X obj 131 113 float;
#X obj 131 67 trigger bang anything;
#X obj 37 427 outlet;
#X obj 37 356 trigger bang anything;
#X obj 179 376 list;
#X msg 179 396 set \$1 \$2 \$3;
#X msg 37 308 analog \$1 \$2;
#X connect 0 0 11 0;
#X connect 1 0 10 0;
#X connect 2 0 17 0;
#X connect 3 0 8 0;
#X connect 3 0 2 1;
#X connect 3 1 9 0;
#X connect 3 1 4 1;
#X connect 4 0 17 0;
#X connect 7 0 2 0;
#X connect 7 1 4 0;
#X connect 8 0 7 0;
#X connect 9 0 7 0;
#X connect 10 0 12 0;
#X connect 11 0 7 1;
#X connect 12 0 11 0;
#X connect 12 1 3 0;
#X connect 14 0 13 0;
#X connect 14 1 15 0;
#X connect 15 0 16 0;
#X connect 16 0 13 0;
#X connect 17 0 14 0;
#X restore 332 248 pd analog;
#X obj 330 401 cnv 15 85 22 empty empty empty 20 12 0 14 -253938 -66577
0;
#X obj 453 321 hsl 150 17 0 1 0 0 empty ARDUINO_TEST_RESET blue 20
9 1 10 -4160 -1 -1 14900 0;
#N canvas 72 104 423 503 analog 0;
#X obj 38 10 inlet;
#X obj 131 10 inlet;
#X obj 38 259 pack float float;
#X obj 192 113 route float symbol;
#X obj 188 259 pack float symbol;
#X text 78 11 pin#;
#X text 179 10 PWM value or "off";
#X obj 39 217 cyclone/gate 2;
#X msg 191 153 1;
#X msg 252 153 2;
#X obj 131 34 list;
#X obj 131 113 float;
#X obj 131 67 trigger bang anything;
#X obj 37 427 outlet;
#X obj 37 356 trigger bang anything;
#X obj 179 376 list;
#X msg 179 396 set \$1 \$2 \$3;
#X msg 37 308 analog \$1 \$2;
#X connect 0 0 11 0;
#X connect 1 0 10 0;
#X connect 2 0 17 0;
#X connect 3 0 8 0;
#X connect 3 0 2 1;
#X connect 3 1 9 0;
#X connect 3 1 4 1;
#X connect 4 0 17 0;
#X connect 7 0 2 0;
#X connect 7 1 4 0;
#X connect 8 0 7 0;
#X connect 9 0 7 0;
#X connect 10 0 12 0;
#X connect 11 0 7 1;
#X connect 12 0 11 0;
#X connect 12 1 3 0;
#X connect 14 0 13 0;
#X connect 14 1 15 0;
#X connect 15 0 16 0;
#X connect 16 0 13 0;
#X connect 17 0 14 0;
#X restore 338 381 pd analog;
#X msg 363 79 11;
#X msg 352 215 10;
#X msg 356 353 9;
#X msg 340 130 analog 11 1;
#X msg 332 270 analog 10 1;
#X msg 337 403 analog 9 1;
#X connect 1 0 7 0;
#X connect 1 1 3 0;
#X connect 3 0 4 0;
#X connect 7 0 4 0;
#X connect 9 0 10 1;
#X connect 9 0 17 0;
#X connect 10 0 20 0;
#X connect 12 0 13 1;
#X connect 12 0 18 0;
#X connect 13 0 21 0;
#X connect 15 0 16 1;
#X connect 15 0 19 0;
#X connect 16 0 22 0;
#X connect 17 0 10 0;
#X connect 18 0 13 0;
#X connect 19 0 16 0;
#X connect 20 0 4 0;
#X connect 21 0 4 0;
#X connect 22 0 4 0;
